<svg xmlns="http://www.w3.org/2000/svg" height="48" viewBox="0 -960 960 960" width="48"><path d="M278.163-426.615q-21.778 0-37.663-15.722-15.885-15.721-15.885-37.5 0-21.778 15.722-37.663 15.721-15.885 37.5-15.885 21.778 0 37.663 15.722 15.885 15.721 15.885 37.5 0 21.778-15.722 37.663-15.721 15.885-37.5 15.885ZM278-265q-89.583 0-152.292-62.707Q63-390.414 63-479.995q0-89.582 62.708-152.294Q188.417-695 278-695q65.112 0 118.595 35 53.482 35 76.251 94.769h357.385q5.896 0 11.679 2.5 5.782 2.5 10.963 6.681l56.024 56.023q4.362 5.441 7.271 11.744 2.909 6.304 2.909 12.978 0 6.675-3.024 12.863-3.025 6.188-7.507 10.797l-92.161 84.799q-3.988 5.07-9.392 7.464-5.403 2.393-11.32 2.536-6.324 0-11.763-.875-5.44-.875-9.448-5.125l-51.385-38-56.769 40.308q-5.136 4-10.184 5.115-5.047 1.116-10.078 1.116t-10.596-1.116q-5.566-1.115-8.296-4.346l-49.077-35H472.846q-21.615 55.385-73.384 92.577Q347.692-265 278-265Zm-.222-43.769q61.76 0 106.53-38.731 44.769-38.731 57.081-91.038h151.919l53.538 38.384h-.385.5-.115l77.231-54.538 69.692 51.769h-.115.115v-.385.385l76.846-73.692.116.5-.116-.5h.116-.116l-44.846-44.847h-384.23q-11.231-50.615-55.619-90.192-44.388-39.577-107.719-39.577-71.411 0-121.421 49.925-50.011 49.924-50.011 121.307 0 71.384 49.859 121.307t121.15 49.923Z"/></svg>